<?xml version="1.0" encoding="UTF-8" standalone="no"?>
<!-- Created with Inkscape (http://www.inkscape.org/) -->

<svg
   width="400mm"
   height="300mm"
   viewBox="0 0 400 300"
   version="1.1"
   id="svg1"
   xml:space="preserve"
   inkscape:version="1.3 (0e150ed6c4, 2023-07-21)"
   sodipodi:docname="Logo_Valk_links_D_gr.svg"
   inkscape:export-filename="Logo_Valk_links_D_gr.pdf"
   inkscape:export-xdpi="300"
   inkscape:export-ydpi="300"
   xmlns:inkscape="http://www.inkscape.org/namespaces/inkscape"
   xmlns:sodipodi="http://sodipodi.sourceforge.net/DTD/sodipodi-0.dtd"
   xmlns:xlink="http://www.w3.org/1999/xlink"
   xmlns="http://www.w3.org/2000/svg"
   xmlns:svg="http://www.w3.org/2000/svg"
   xmlns:rdf="http://www.w3.org/1999/02/22-rdf-syntax-ns#"
   xmlns:cc="http://creativecommons.org/ns#"
   xmlns:dc="http://purl.org/dc/elements/1.1/"><title
     id="title18">Valkenfruehling Flagge</title><sodipodi:namedview
     id="namedview1"
     pagecolor="#006ab3"
     bordercolor="#666666"
     borderopacity="1.0"
     inkscape:showpageshadow="2"
     inkscape:pageopacity="0.0"
     inkscape:pagecheckerboard="false"
     inkscape:deskcolor="#d1d1d1"
     inkscape:document-units="mm"
     showguides="true"
     inkscape:zoom="0.33163637"
     inkscape:cx="97.998901"
     inkscape:cy="422.14911"
     inkscape:window-width="1920"
     inkscape:window-height="1080"
     inkscape:window-x="0"
     inkscape:window-y="0"
     inkscape:window-maximized="1"
     inkscape:current-layer="layer4"
     inkscape:export-bgcolor="#006ab3ff"><sodipodi:guide
       position="19.406053,280.59393"
       orientation="-1,0"
       id="guide4"
       inkscape:locked="false"
       inkscape:label=""
       inkscape:color="rgb(0,134,229)" /><sodipodi:guide
       position="19.406053,280.59393"
       orientation="-1,0"
       id="guide5"
       inkscape:label=""
       inkscape:locked="false"
       inkscape:color="rgb(0,134,229)" /><sodipodi:guide
       position="380,120"
       orientation="-1,0"
       id="guide6"
       inkscape:locked="false"
       inkscape:label=""
       inkscape:color="rgb(0,134,229)" /><sodipodi:guide
       position="279.40597,280.59393"
       orientation="0,1"
       id="guide7"
       inkscape:locked="false"
       inkscape:label=""
       inkscape:color="rgb(0,134,229)" /><sodipodi:guide
       position="20,20"
       orientation="0,1"
       id="guide8"
       inkscape:locked="false"
       inkscape:label=""
       inkscape:color="rgb(0,134,229)" /><sodipodi:guide
       position="200,150"
       orientation="-1,0"
       id="guide19"
       inkscape:locked="false"
       inkscape:label=""
       inkscape:color="rgb(0,134,229)" /><sodipodi:guide
       position="749999.36,200.59397"
       orientation="-1,0"
       id="guide20"
       inkscape:locked="false"
       inkscape:label=""
       inkscape:color="rgb(0,134,229)" /><sodipodi:guide
       position="221.90599,200.59397"
       orientation="-1,0"
       id="guide21"
       inkscape:locked="false"
       inkscape:label=""
       inkscape:color="rgb(0,134,229)" /><sodipodi:guide
       position="74.406046,200.59397"
       orientation="-1,0"
       id="guide22"
       inkscape:locked="false"
       inkscape:label=""
       inkscape:color="rgb(0,134,229)" /></sodipodi:namedview><defs
     id="defs1"><linearGradient
       id="swatch3"
       inkscape:swatch="solid"
       inkscape:label="Background"><stop
         style="stop-color:#006ab3;stop-opacity:1;"
         offset="0"
         id="stop3" /></linearGradient><linearGradient
       id="swatch27"
       inkscape:swatch="solid"
       inkscape:label="Foreground"><stop
         style="stop-color:#ffffff;stop-opacity:1;"
         offset="0"
         id="stop28" /></linearGradient><inkscape:path-effect
       effect="spiro"
       id="path-effect12"
       is_visible="false"
       lpeversion="1" /><linearGradient
       inkscape:collect="always"
       xlink:href="#swatch3"
       id="linearGradient3"
       x1="0.45688286"
       y1="100"
       x2="299.54309"
       y2="100"
       gradientUnits="userSpaceOnUse" /><linearGradient
       inkscape:collect="always"
       xlink:href="#swatch27"
       id="linearGradient4"
       x1="76.664207"
       y1="99.910812"
       x2="221.07854"
       y2="99.910812"
       gradientUnits="userSpaceOnUse" /><linearGradient
       inkscape:collect="always"
       xlink:href="#swatch3"
       id="linearGradient6"
       x1="75.597786"
       y1="167.4707"
       x2="222.19411"
       y2="167.4707"
       gradientUnits="userSpaceOnUse" /><linearGradient
       inkscape:collect="always"
       xlink:href="#swatch3"
       id="linearGradient7"
       x1="129.30009"
       y1="117.98669"
       x2="179.49254"
       y2="117.98669"
       gradientUnits="userSpaceOnUse" /><linearGradient
       inkscape:collect="always"
       xlink:href="#swatch3"
       id="linearGradient8"
       x1="165.52853"
       y1="103.01257"
       x2="214.19902"
       y2="103.01257"
       gradientUnits="userSpaceOnUse"
       gradientTransform="matrix(1.6271058,0,0,1.6271058,-144.94943,-12.10859)" /><linearGradient
       inkscape:collect="always"
       xlink:href="#swatch3"
       id="linearGradient1"
       x1="0.45688286"
       y1="100"
       x2="299.54309"
       y2="100"
       gradientUnits="userSpaceOnUse" /><linearGradient
       inkscape:collect="always"
       xlink:href="#swatch3"
       id="linearGradient2"
       gradientUnits="userSpaceOnUse"
       x1="0.45688286"
       y1="100"
       x2="299.54309"
       y2="100"
       gradientTransform="matrix(1.337407,0,0,1.5068847,-0.15415529,-0.23157629)" /><linearGradient
       inkscape:collect="always"
       xlink:href="#swatch3"
       id="linearGradient5"
       gradientUnits="userSpaceOnUse"
       x1="0.45688286"
       y1="100"
       x2="299.54309"
       y2="100"
       gradientTransform="matrix(1.337407,0,0,1.5068847,-0.15415529,-0.23157629)" /><linearGradient
       inkscape:collect="always"
       xlink:href="#swatch27"
       id="linearGradient9"
       gradientUnits="userSpaceOnUse"
       x1="76.664207"
       y1="99.910812"
       x2="221.07854"
       y2="99.910812"
       gradientTransform="matrix(1.6271058,0,0,1.6271058,-144.94943,-12.10859)" /><linearGradient
       inkscape:collect="always"
       xlink:href="#swatch27"
       id="linearGradient10"
       gradientUnits="userSpaceOnUse"
       x1="76.664207"
       y1="99.910812"
       x2="221.07854"
       y2="99.910812"
       gradientTransform="matrix(1.6271058,0,0,1.6271058,-144.94943,-12.10859)" /><linearGradient
       inkscape:collect="always"
       xlink:href="#swatch27"
       id="linearGradient11"
       gradientUnits="userSpaceOnUse"
       x1="76.664207"
       y1="99.910812"
       x2="221.07854"
       y2="99.910812"
       gradientTransform="matrix(1.6271058,0,0,1.6271058,-144.94943,-12.10859)" /><linearGradient
       inkscape:collect="always"
       xlink:href="#swatch3"
       id="linearGradient12"
       gradientUnits="userSpaceOnUse"
       x1="75.597786"
       y1="167.4707"
       x2="222.19411"
       y2="167.4707" /><linearGradient
       inkscape:collect="always"
       xlink:href="#swatch3"
       id="linearGradient13"
       gradientUnits="userSpaceOnUse"
       x1="129.30009"
       y1="117.98669"
       x2="179.49254"
       y2="117.98669" /><linearGradient
       inkscape:collect="always"
       xlink:href="#swatch3"
       id="linearGradient14"
       gradientUnits="userSpaceOnUse"
       x1="129.30009"
       y1="117.98669"
       x2="179.49254"
       y2="117.98669" /><linearGradient
       inkscape:collect="always"
       xlink:href="#swatch3"
       id="linearGradient15"
       gradientUnits="userSpaceOnUse"
       x1="129.30009"
       y1="117.98669"
       x2="179.49254"
       y2="117.98669"
       gradientTransform="matrix(1.6271058,0,0,1.6271058,-41.797596,-12.10859)" /></defs><g
     inkscape:groupmode="layer"
     id="layer4"
     inkscape:label="Background"
     sodipodi:insensitive="true"
     style="display:inline;fill:url(#linearGradient3);stroke:url(#linearGradient1)"
     transform="translate(-0.45688287,-0.45688287)"><rect
       style="display:inline;mix-blend-mode:normal;fill:url(#linearGradient2);fill-opacity:1;stroke:url(#linearGradient5);stroke-width:0;stroke-linecap:round;stroke-linejoin:round;stroke-dasharray:none;stroke-dashoffset:0;stroke-opacity:1"
       id="rect18"
       width="400"
       height="300"
       x="0.45688337"
       y="0.45688236"
       inkscape:label="Background" /></g><g
     inkscape:label="boot"
     inkscape:groupmode="layer"
     id="layer1"
     style="display:inline"
     transform="translate(-0.45688287,-0.45688287)"><g
       inkscape:groupmode="layer"
       id="layer2"
       inkscape:label="Boot"
       style="display:inline;fill:url(#linearGradient4);fill-opacity:1"
       transform="matrix(-1,0,0,1,297.79188,0)"><path
         style="fill:url(#linearGradient9);fill-opacity:1;stroke:none;stroke-width:0.469557px;stroke-linecap:round;stroke-linejoin:miter;stroke-opacity:1"
         d="M 99.700611,20.433529 C 113.22835,70.96472 130.11862,134.49731 130.11862,134.49731 l 6.06337,100.06418 c 0,0 -41.554955,-0.50792 -107.514441,1.24526 C 33.732697,213.66916 60.491868,64.58208 99.700611,20.433529 Z"
         id="path9"
         sodipodi:nodetypes="ccccc"
         inkscape:label="Gross" /><path
         style="fill:url(#linearGradient10);fill-opacity:1;stroke:url(#linearGradient8);stroke-width:3.2246;stroke-linecap:round;stroke-linejoin:miter;stroke-dasharray:none;stroke-opacity:1"
         d="m 133.98574,63.740401 c 8.06823,21.678648 67.09963,181.993779 67.09963,181.993779 0,0 -34.51408,-6.32414 -74.81374,-0.80323 4.52988,-32.73854 18.9682,-112.88741 7.71411,-181.190549 z"
         id="path8"
         sodipodi:nodetypes="cccc"
         inkscape:label="Fok" /><path
         style="fill:url(#linearGradient11);fill-opacity:1;stroke:none;stroke-width:0.469557px;stroke-linecap:round;stroke-linejoin:miter;stroke-opacity:1"
         d="m -13.189576,252.79196 c 73.667402,-6.0454 217.937406,-4.46031 227.958326,0.53491 -3.11994,5.78109 -4.23921,18.99545 -7.33324,19.92563 -14.36938,-8.35341 -60.70055,-0.19295 -90.50672,4.73062 -32.518694,5.37163 -124.9823481,1.27884 -133.594631,-4.73965 -2.276516,-4.37946 -2.611031,-9.72649 -3.433801,-11.53237 -0.822773,-1.80584 3.161751,-8.61155 6.910066,-8.91914 z"
         id="path10"
         sodipodi:nodetypes="sccsczs"
         inkscape:label="Rumpf" /></g><g
       inkscape:groupmode="layer"
       id="layer5"
       inkscape:label="Linie"
       style="fill:none;fill-opacity:1;stroke:url(#linearGradient6);stroke-opacity:1"><path
         style="display:inline;fill:none;fill-opacity:1;stroke:url(#linearGradient12)"
         d="m 67.520289,162.81433 c 47.693251,8.1061 112.636591,-0.43928 132.403731,-4.502"
         id="path11"
         sodipodi:nodetypes="cc"
         inkscape:label="Linie"
         inkscape:original-d="m 67.520289,162.81433 c 47.693251,8.1061 112.636591,-0.43928 132.403731,-4.502"
         inkscape:path-effect="#path-effect12"
         transform="matrix(-1.7747105,0,0,1.7747105,437.78998,-27.569002)" /></g></g><g
     inkscape:groupmode="layer"
     id="layer3"
     inkscape:label="Logo"
     style="display:inline;fill:url(#linearGradient7)"
     transform="translate(-0.45688287,-0.45688287)"><path
       d="m 169.8402,144.31604 c -1.03052,-1.13169 -2.79046,-3.44029 -3.91094,-5.13019 -1.12049,-1.68991 -2.17886,-3.31934 -2.35192,-3.62095 -0.28141,-0.49044 -0.39766,-0.42349 -1.10026,0.63385 -0.43207,0.65025 -1.52445,2.05391 -2.4275,3.11928 -0.90307,1.06534 -2.53419,2.60887 -3.62473,3.43004 -1.09053,0.82121 -2.70811,1.76713 -3.59464,2.10209 -0.8865,0.33496 -2.25827,0.60752 -3.04836,0.60568 -0.79009,-9.9e-4 -1.97667,-0.0925 -2.63687,-0.20159 -0.85114,-0.14054 -1.5777,-0.57559 -2.49752,-1.49543 -0.80187,-0.80188 -1.81513,-2.38358 -2.65363,-4.14233 -0.74605,-1.56484 -1.90745,-4.55986 -2.58092,-6.65562 -0.67347,-2.09576 -1.58184,-5.31939 -2.01859,-7.16365 -0.43674,-1.84428 -0.9876,-4.10769 -1.2241,-5.02981 -0.2365,-0.92214 -0.51879,-2.37536 -0.62729,-3.22936 -0.10864,-0.85401 -0.0389,-2.43155 0.15483,-3.50564 0.19366,-1.07408 0.77755,-2.75319 1.29756,-3.73134 0.53864,-1.01329 1.66666,-2.4213 2.62174,-3.27257 0.92198,-0.82174 2.79008,-2.04583 4.15136,-2.72015 1.36125,-0.67433 3.82287,-1.56797 5.47028,-1.98587 1.64739,-0.41789 3.33659,-0.7598 3.75382,-0.7598 0.65593,0 0.72545,-0.0927 0.51381,-0.68589 -0.13466,-0.37725 -0.25346,-1.44038 -0.26417,-2.362499 -0.0149,-1.289432 0.14487,-1.906981 0.69209,-2.674229 0.39135,-0.54869 1.24325,-1.268863 1.89309,-1.600397 0.64984,-0.331518 1.63283,-0.599765 2.1844,-0.59608 0.55158,0.0028 1.56468,0.261844 2.25131,0.573688 0.77237,0.350767 1.52639,1.016619 1.97735,1.746121 0.55375,0.895797 0.72335,1.589977 0.70578,2.888968 l -0.0233,1.709868 1.39898,-0.15239 c 1.0203,-0.11106 1.70472,-0.425978 2.52839,-1.163174 0.62118,-0.555946 1.65,-1.27575 2.28628,-1.599558 0.6363,-0.323805 1.67021,-0.729914 2.29763,-0.902476 0.6274,-0.172561 1.20877,-0.203646 1.29192,-0.06912 0.083,0.134525 -0.46446,1.162748 -1.21695,2.284885 -0.75247,1.122163 -1.36813,2.166713 -1.36813,2.321263 0,0.15455 0.12665,0.28099 0.28143,0.28099 0.15481,0 0.70952,0.36018 1.23272,0.80045 0.5232,0.44022 1.22886,1.34455 1.56813,2.0096 0.33929,0.66502 0.73976,1.96417 0.88994,2.88696 0.16503,1.014 0.15864,2.58038 -0.016,3.95925 -0.1591,1.25479 -0.77515,3.73352 -1.36903,5.50828 -0.59388,1.77477 -1.99093,4.99713 -3.10456,7.16082 l -2.02479,3.93399 0.54753,2.95048 c 0.30113,1.62273 1.08414,4.83414 1.73999,7.13643 0.65585,2.30229 1.5231,5.06436 1.92719,6.13794 0.4041,1.07359 0.65039,2.03631 0.5473,2.1394 -0.10308,0.10307 -0.29083,0.18743 -0.4172,0.18743 -0.12638,0 -1.07292,-0.92594 -2.10343,-2.05765 z m -18.76385,-7.22906 c 1.62888,-0.41319 4.36135,-1.41992 6.07214,-2.23714 2.26659,-1.0827 3.65251,-1.99285 5.10809,-3.35448 1.18205,-1.10576 2.39405,-2.61248 2.96868,-3.69061 0.64868,-1.21707 1.08513,-2.61189 1.31449,-4.20105 0.2835,-1.96403 0.25989,-2.78556 -0.13521,-4.70935 -0.28654,-1.39505 -1.04839,-3.46662 -1.89824,-5.16161 -0.78077,-1.55723 -1.69344,-3.18353 -2.02813,-3.61403 -0.3347,-0.43048 -1.18096,-1.38727 -1.88055,-2.12616 -0.69961,-0.73891 -1.95927,-1.66352 -2.79926,-2.05467 -1.14682,-0.53405 -2.0588,-0.71016 -3.66112,-0.70695 -1.51435,0.004 -2.62271,0.2054 -3.81775,0.69708 -0.92613,0.38103 -2.50344,1.23513 -3.50512,1.89799 -1.00167,0.66286 -2.99869,2.37117 -4.43784,3.79627 -1.4391,1.42513 -3.4631,3.73526 -4.49776,5.13368 -1.03462,1.39837 -1.79994,2.67392 -1.70069,2.83453 0.10982,0.17775 0.31897,0.18299 0.53438,0.0138 0.19465,-0.15322 1.38272,-1.06707 2.64019,-2.03078 1.25744,-0.96369 3.18612,-2.20534 4.28593,-2.75918 1.09979,-0.55387 2.80284,-1.24053 3.78457,-1.52591 1.25349,-0.3644 2.47772,-0.47877 4.11198,-0.38416 1.71088,0.099 2.67183,0.32846 3.62903,0.86644 1.0703,0.60154 1.50158,1.14 2.42381,3.02611 1.02579,2.09799 1.12159,2.51621 1.11918,4.8855 -9.9e-4,1.94952 -0.14441,2.85532 -0.57521,3.65804 -0.31494,0.58681 -0.97071,1.5736 -1.45731,2.19284 -0.4866,0.61927 -1.7251,1.68709 -2.75222,2.373 -1.02715,0.68591 -1.9641,1.13947 -2.08215,1.00794 -0.11796,-0.13148 -0.65847,-1.6109 -1.20101,-3.28749 -0.54254,-1.67662 -1.44317,-4.0429 -2.00139,-5.25844 -0.62905,-1.36979 -1.19634,-2.21006 -1.49203,-2.21006 -0.26239,0 -0.47709,0.0829 -0.47709,0.18462 0,0.10153 0.23035,1.02748 0.51188,2.05765 0.36688,1.34243 0.51799,3.16834 0.53346,6.44556 0.0125,2.51491 -0.0822,5.5671 -0.20917,6.78264 -0.18653,1.78648 -0.1502,2.21006 0.18954,2.21006 0.23115,0 1.75303,-0.33807 3.38192,-0.75126 z"
       style="display:none;fill:url(#linearGradient13);fill-opacity:1;stroke-width:0.863847;stroke-dasharray:none"
       id="path1"
       inkscape:label="Logo Hochschulsport"
       sodipodi:nodetypes="sssssssccssssscccssssccsscsscccssscsssssscsscssssssscssssssssscsscsscssscsscsssssssssccscc" /><path
       style="display:none;fill:url(#linearGradient14);fill-opacity:1;fill-rule:nonzero;stroke:none;stroke-width:0.264583px;stroke-linecap:butt;stroke-linejoin:miter;stroke-opacity:1"
       d="m 152.15976,115.47917 c -8.04279,-3.47792 -17.07972,-0.47338 -24.34226,3.977 9.41221,-0.73327 30.56691,-5.52094 23.53186,12.96654 2.07799,-1.06222 3.84395,-1.1489 5.85294,0 -7.03505,-18.48748 14.11965,-13.69981 23.53187,-12.96654 -7.26254,-4.45038 -16.29948,-7.45492 -24.34227,-3.977 0.13721,-1.95898 -0.65982,-3.3948 -2.11607,-4.54729 -1.70447,0.96852 -2.01042,2.71175 -2.11607,4.54729 z"
       id="valk"
       sodipodi:nodetypes="cccccccc"
       inkscape:label="Valk Segelzeichen" /><path
       d="m 208.42366,222.60674 c 4.35291,-1.1355 11.65497,-3.90205 16.22678,-6.14781 6.05708,-2.97534 9.76075,-5.47648 13.65054,-9.21835 3.15883,-3.03869 6.39768,-7.17925 7.9333,-10.14203 1.73348,-3.34458 2.89984,-7.17764 3.51276,-11.54477 0.75761,-5.39729 0.69451,-7.65488 -0.36133,-12.94158 -0.76572,-3.83369 -2.80164,-9.52649 -5.07272,-14.18446 -2.0865,-4.27937 -4.52544,-8.74855 -5.41986,-9.93157 -0.89442,-1.18299 -3.15593,-3.8123 -5.02546,-5.84284 -1.86958,-2.03057 -5.23583,-4.57145 -7.48057,-5.64637 -3.06467,-1.4676 -5.5018,-1.95157 -9.78372,-1.94273 -4.04684,0.0114 -7.00876,0.56444 -10.2023,1.91561 -2.47495,1.0471 -6.69005,3.39422 -9.36685,5.2158 -2.67682,1.82159 -8.01352,6.51613 -11.85941,10.43238 -3.84576,3.91636 -9.25457,10.26475 -12.01953,14.10769 -2.76484,3.84282 -4.81003,7.34813 -4.54481,7.7895 0.29348,0.48844 0.8524,0.50287 1.42803,0.0379 0.5202,-0.42106 3.6951,-2.93239 7.05548,-5.58072 3.3603,-2.64827 8.51439,-6.06041 11.45345,-7.58241 2.93901,-1.52207 7.49012,-3.40906 10.11365,-4.19331 3.34974,-1.00138 6.62129,-1.31568 10.98859,-1.0557 4.57204,0.27209 7.14,0.90266 9.69798,2.38104 2.86019,1.6531 4.01272,3.13282 6.47723,8.31596 2.74126,5.76541 2.99726,6.9147 2.99081,13.42566 -0.002,5.35743 -0.3859,7.84662 -1.53714,10.05255 -0.84162,1.61258 -2.59408,4.32435 -3.89443,6.02607 -1.30037,1.70179 -4.61005,4.63621 -7.35486,6.52113 -2.74489,1.88494 -5.24872,3.13137 -5.5642,2.76989 -0.31523,-0.3613 -1.75965,-4.42683 -3.2095,-9.03421 -1.44986,-4.60748 -3.85663,-11.11017 -5.34839,-14.45054 -1.68101,-3.76428 -3.197,-6.0734 -3.98717,-6.0734 -0.70122,0 -1.27497,0.22783 -1.27497,0.50735 0,0.27901 0.61556,2.82359 1.36792,5.65455 0.98042,3.6891 1.38423,8.70682 1.42559,17.71282 0.0334,6.91115 -0.21969,15.29875 -0.55897,18.63915 -0.49848,4.90936 -0.40138,6.07338 0.5065,6.07338 0.61771,0 4.6847,-0.92904 9.03763,-2.0645 z"
       style="display:inline;fill:url(#linearGradient15);fill-opacity:1;stroke-width:2.34098;stroke-dasharray:none"
       id="path2"
       inkscape:label="Hochschulsport D"
       sodipodi:nodetypes="cssssssssscsscsscssscsscsssssssssccscc" /></g><metadata
     id="metadata18"><rdf:RDF><cc:Work
         rdf:about=""><dc:title>Valkenfruehling Flagge</dc:title><cc:license
           rdf:resource="http://creativecommons.org/licenses/by-nc-sa/4.0/" /></cc:Work><cc:License
         rdf:about="http://creativecommons.org/licenses/by-nc-sa/4.0/"><cc:permits
           rdf:resource="http://creativecommons.org/ns#Reproduction" /><cc:permits
           rdf:resource="http://creativecommons.org/ns#Distribution" /><cc:requires
           rdf:resource="http://creativecommons.org/ns#Notice" /><cc:requires
           rdf:resource="http://creativecommons.org/ns#Attribution" /><cc:prohibits
           rdf:resource="http://creativecommons.org/ns#CommercialUse" /><cc:permits
           rdf:resource="http://creativecommons.org/ns#DerivativeWorks" /><cc:requires
           rdf:resource="http://creativecommons.org/ns#ShareAlike" /></cc:License></rdf:RDF></metadata></svg>
