<?xml version="1.0" encoding="UTF-8" standalone="no"?>
<!-- Created with Inkscape (http://www.inkscape.org/) -->

<svg
   width="300mm"
   height="200mm"
   viewBox="0 0 300 200"
   version="1.1"
   id="svg1"
   xml:space="preserve"
   inkscape:version="1.3 (0e150ed6c4, 2023-07-21)"
   sodipodi:docname="Logo_Valk_links.svg"
   inkscape:export-filename="Logo_Valk_links_D_2.pdf"
   inkscape:export-xdpi="96"
   inkscape:export-ydpi="96"
   xmlns:inkscape="http://www.inkscape.org/namespaces/inkscape"
   xmlns:sodipodi="http://sodipodi.sourceforge.net/DTD/sodipodi-0.dtd"
   xmlns:xlink="http://www.w3.org/1999/xlink"
   xmlns="http://www.w3.org/2000/svg"
   xmlns:svg="http://www.w3.org/2000/svg"
   xmlns:rdf="http://www.w3.org/1999/02/22-rdf-syntax-ns#"
   xmlns:cc="http://creativecommons.org/ns#"
   xmlns:dc="http://purl.org/dc/elements/1.1/"><title
     id="title18">Valkenfruehling Flagge</title><sodipodi:namedview
     id="namedview1"
     pagecolor="#ffffff"
     bordercolor="#666666"
     borderopacity="1.0"
     inkscape:showpageshadow="2"
     inkscape:pageopacity="0.0"
     inkscape:pagecheckerboard="0"
     inkscape:deskcolor="#d1d1d1"
     inkscape:document-units="mm"
     showguides="true"
     inkscape:zoom="0.93800931"
     inkscape:cx="408.84456"
     inkscape:cy="374.19671"
     inkscape:window-width="1920"
     inkscape:window-height="1080"
     inkscape:window-x="0"
     inkscape:window-y="0"
     inkscape:window-maximized="1"
     inkscape:current-layer="layer4"
     inkscape:export-bgcolor="#006ab300"><sodipodi:guide
       position="20,180"
       orientation="-1,0"
       id="guide4"
       inkscape:locked="false"
       inkscape:label=""
       inkscape:color="rgb(0,134,229)" /><sodipodi:guide
       position="20,180"
       orientation="-1,0"
       id="guide5"
       inkscape:label=""
       inkscape:locked="false"
       inkscape:color="rgb(0,134,229)" /><sodipodi:guide
       position="280,20"
       orientation="-1,0"
       id="guide6"
       inkscape:locked="false"
       inkscape:label=""
       inkscape:color="rgb(0,134,229)" /><sodipodi:guide
       position="280,180"
       orientation="0,1"
       id="guide7"
       inkscape:locked="false"
       inkscape:label=""
       inkscape:color="rgb(0,134,229)" /><sodipodi:guide
       position="20,20"
       orientation="0,1"
       id="guide8"
       inkscape:locked="false"
       inkscape:label=""
       inkscape:color="rgb(0,134,229)" /><sodipodi:guide
       position="150,190"
       orientation="-1,0"
       id="guide19"
       inkscape:locked="false"
       inkscape:label=""
       inkscape:color="rgb(0,134,229)" /><sodipodi:guide
       position="749999.99,99.999999"
       orientation="-1,0"
       id="guide20"
       inkscape:locked="false"
       inkscape:label=""
       inkscape:color="rgb(0,134,229)" /><sodipodi:guide
       position="222.5,99.999999"
       orientation="-1,0"
       id="guide21"
       inkscape:locked="false"
       inkscape:label=""
       inkscape:color="rgb(0,134,229)" /><sodipodi:guide
       position="74.999999,99.999999"
       orientation="-1,0"
       id="guide22"
       inkscape:locked="false"
       inkscape:label=""
       inkscape:color="rgb(0,134,229)" /></sodipodi:namedview><defs
     id="defs1"><linearGradient
       id="swatch3"
       inkscape:swatch="solid"
       inkscape:label="Background"><stop
         style="stop-color:#006ab3;stop-opacity:1;"
         offset="0"
         id="stop3" /></linearGradient><linearGradient
       id="swatch27"
       inkscape:swatch="solid"
       inkscape:label="Foreground"><stop
         style="stop-color:#ffffff;stop-opacity:1;"
         offset="0"
         id="stop28" /></linearGradient><inkscape:path-effect
       effect="spiro"
       id="path-effect12"
       is_visible="false"
       lpeversion="1" /><linearGradient
       inkscape:collect="always"
       xlink:href="#swatch3"
       id="linearGradient3"
       x1="0.45688286"
       y1="100"
       x2="299.54309"
       y2="100"
       gradientUnits="userSpaceOnUse" /><linearGradient
       inkscape:collect="always"
       xlink:href="#swatch27"
       id="linearGradient4"
       x1="76.664207"
       y1="99.910812"
       x2="221.07854"
       y2="99.910812"
       gradientUnits="userSpaceOnUse" /><linearGradient
       inkscape:collect="always"
       xlink:href="#swatch3"
       id="linearGradient6"
       x1="75.597786"
       y1="167.4707"
       x2="222.19411"
       y2="167.4707"
       gradientUnits="userSpaceOnUse" /><linearGradient
       inkscape:collect="always"
       xlink:href="#swatch3"
       id="linearGradient7"
       x1="129.30009"
       y1="117.98669"
       x2="179.49254"
       y2="117.98669"
       gradientUnits="userSpaceOnUse" /><linearGradient
       inkscape:collect="always"
       xlink:href="#swatch3"
       id="linearGradient8"
       x1="165.52853"
       y1="103.01257"
       x2="214.19902"
       y2="103.01257"
       gradientUnits="userSpaceOnUse" /><linearGradient
       inkscape:collect="always"
       xlink:href="#swatch3"
       id="linearGradient1"
       x1="0.45688286"
       y1="100"
       x2="299.54309"
       y2="100"
       gradientUnits="userSpaceOnUse" /></defs><g
     inkscape:groupmode="layer"
     id="layer4"
     inkscape:label="Background"
     sodipodi:insensitive="true"
     style="display:inline;fill:url(#linearGradient3);stroke:url(#linearGradient1)"><rect
       style="mix-blend-mode:normal;fill:url(#linearGradient3);fill-opacity:1;stroke:url(#linearGradient1);stroke-width:0;stroke-linecap:round;stroke-linejoin:round;stroke-dasharray:none;stroke-dashoffset:0;stroke-opacity:1;marker-start:"
       id="rect18"
       width="299.08621"
       height="199.08623"
       x="0.45688337"
       y="0.45688337"
       inkscape:label="Background" /></g><g
     inkscape:label="boot"
     inkscape:groupmode="layer"
     id="layer1"
     style="display:inline"><g
       inkscape:groupmode="layer"
       id="layer2"
       inkscape:label="Boot"
       style="display:inline;fill:url(#linearGradient4);fill-opacity:1"
       transform="matrix(-1,0,0,1,297.79188,0)"><path
         style="fill-opacity:1;stroke:none;stroke-width:0.288584px;stroke-linecap:round;stroke-linejoin:miter;stroke-opacity:1"
         d="m 150.35902,20 c 8.31399,31.055874 18.69455,70.102255 18.69455,70.102255 l 3.72648,61.498255 c 0,0 -25.53919,-0.31216 -66.07711,0.76532 C 109.81592,138.76033 126.26179,47.133177 150.35902,20 Z"
         id="path9"
         sodipodi:nodetypes="ccccc"
         inkscape:label="Gross" /><path
         style="fill-opacity:1;stroke:url(#linearGradient8);stroke-width:1.9818;stroke-linecap:round;stroke-linejoin:miter;stroke-dasharray:none;stroke-opacity:1"
         d="m 171.43026,46.615891 c 4.95864,13.323443 41.23864,111.851219 41.23864,111.851219 0,0 -21.21195,-3.88674 -45.97964,-0.49365 2.78401,-20.12072 11.65763,-69.379272 4.741,-111.357569 z"
         id="path8"
         sodipodi:nodetypes="cccc"
         inkscape:label="Fok" /><path
         style="fill-opacity:1;stroke:none;stroke-width:0.288584px;stroke-linecap:round;stroke-linejoin:miter;stroke-opacity:1"
         d="m 80.978046,162.80474 c 45.275114,-3.71543 133.941754,-2.74125 140.100494,0.32875 -1.91748,3.55299 -2.60537,11.67438 -4.50692,12.24606 -8.83125,-5.13391 -37.30584,-0.11859 -55.62436,2.90738 -19.98561,3.30134 -76.812678,0.78596 -82.105685,-2.91293 -1.39912,-2.69157 -1.604709,-5.97779 -2.110374,-7.08766 -0.505666,-1.10985 1.943175,-5.29256 4.246845,-5.4816 z"
         id="path10"
         sodipodi:nodetypes="sccsczs"
         inkscape:label="Rumpf" /></g><g
       inkscape:groupmode="layer"
       id="layer5"
       inkscape:label="Linie"
       style="fill:none;fill-opacity:1;stroke:url(#linearGradient6);stroke-opacity:1"><path
         style="display:inline;fill:none;fill-opacity:1"
         d="m 67.520289,162.81433 c 47.693251,8.1061 112.636591,-0.43928 132.403731,-4.502"
         id="path11"
         sodipodi:nodetypes="cc"
         inkscape:label="Linie"
         inkscape:original-d="m 67.520289,162.81433 c 47.693251,8.1061 112.636591,-0.43928 132.403731,-4.502"
         inkscape:path-effect="#path-effect12"
         transform="matrix(-1.0907161,0,0,1.0907161,294.74885,-9.5017876)" /></g></g><g
     inkscape:groupmode="layer"
     id="layer3"
     inkscape:label="Logo"
     style="display:inline;fill:url(#linearGradient7)"><path
       d="m 169.8402,144.31604 c -1.03052,-1.13169 -2.79046,-3.44029 -3.91094,-5.13019 -1.12049,-1.68991 -2.17886,-3.31934 -2.35192,-3.62095 -0.28141,-0.49044 -0.39766,-0.42349 -1.10026,0.63385 -0.43207,0.65025 -1.52445,2.05391 -2.4275,3.11928 -0.90307,1.06534 -2.53419,2.60887 -3.62473,3.43004 -1.09053,0.82121 -2.70811,1.76713 -3.59464,2.10209 -0.8865,0.33496 -2.25827,0.60752 -3.04836,0.60568 -0.79009,-9.9e-4 -1.97667,-0.0925 -2.63687,-0.20159 -0.85114,-0.14054 -1.5777,-0.57559 -2.49752,-1.49543 -0.80187,-0.80188 -1.81513,-2.38358 -2.65363,-4.14233 -0.74605,-1.56484 -1.90745,-4.55986 -2.58092,-6.65562 -0.67347,-2.09576 -1.58184,-5.31939 -2.01859,-7.16365 -0.43674,-1.84428 -0.9876,-4.10769 -1.2241,-5.02981 -0.2365,-0.92214 -0.51879,-2.37536 -0.62729,-3.22936 -0.10864,-0.85401 -0.0389,-2.43155 0.15483,-3.50564 0.19366,-1.07408 0.77755,-2.75319 1.29756,-3.73134 0.53864,-1.01329 1.66666,-2.4213 2.62174,-3.27257 0.92198,-0.82174 2.79008,-2.04583 4.15136,-2.72015 1.36125,-0.67433 3.82287,-1.56797 5.47028,-1.98587 1.64739,-0.41789 3.33659,-0.7598 3.75382,-0.7598 0.65593,0 0.72545,-0.0927 0.51381,-0.68589 -0.13466,-0.37725 -0.25346,-1.44038 -0.26417,-2.362499 -0.0149,-1.289432 0.14487,-1.906981 0.69209,-2.674229 0.39135,-0.54869 1.24325,-1.268863 1.89309,-1.600397 0.64984,-0.331518 1.63283,-0.599765 2.1844,-0.59608 0.55158,0.0028 1.56468,0.261844 2.25131,0.573688 0.77237,0.350767 1.52639,1.016619 1.97735,1.746121 0.55375,0.895797 0.72335,1.589977 0.70578,2.888968 l -0.0233,1.709868 1.39898,-0.15239 c 1.0203,-0.11106 1.70472,-0.425978 2.52839,-1.163174 0.62118,-0.555946 1.65,-1.27575 2.28628,-1.599558 0.6363,-0.323805 1.67021,-0.729914 2.29763,-0.902476 0.6274,-0.172561 1.20877,-0.203646 1.29192,-0.06912 0.083,0.134525 -0.46446,1.162748 -1.21695,2.284885 -0.75247,1.122163 -1.36813,2.166713 -1.36813,2.321263 0,0.15455 0.12665,0.28099 0.28143,0.28099 0.15481,0 0.70952,0.36018 1.23272,0.80045 0.5232,0.44022 1.22886,1.34455 1.56813,2.0096 0.33929,0.66502 0.73976,1.96417 0.88994,2.88696 0.16503,1.014 0.15864,2.58038 -0.016,3.95925 -0.1591,1.25479 -0.77515,3.73352 -1.36903,5.50828 -0.59388,1.77477 -1.99093,4.99713 -3.10456,7.16082 l -2.02479,3.93399 0.54753,2.95048 c 0.30113,1.62273 1.08414,4.83414 1.73999,7.13643 0.65585,2.30229 1.5231,5.06436 1.92719,6.13794 0.4041,1.07359 0.65039,2.03631 0.5473,2.1394 -0.10308,0.10307 -0.29083,0.18743 -0.4172,0.18743 -0.12638,0 -1.07292,-0.92594 -2.10343,-2.05765 z m -18.76385,-7.22906 c 1.62888,-0.41319 4.36135,-1.41992 6.07214,-2.23714 2.26659,-1.0827 3.65251,-1.99285 5.10809,-3.35448 1.18205,-1.10576 2.39405,-2.61248 2.96868,-3.69061 0.64868,-1.21707 1.08513,-2.61189 1.31449,-4.20105 0.2835,-1.96403 0.25989,-2.78556 -0.13521,-4.70935 -0.28654,-1.39505 -1.04839,-3.46662 -1.89824,-5.16161 -0.78077,-1.55723 -1.69344,-3.18353 -2.02813,-3.61403 -0.3347,-0.43048 -1.18096,-1.38727 -1.88055,-2.12616 -0.69961,-0.73891 -1.95927,-1.66352 -2.79926,-2.05467 -1.14682,-0.53405 -2.0588,-0.71016 -3.66112,-0.70695 -1.51435,0.004 -2.62271,0.2054 -3.81775,0.69708 -0.92613,0.38103 -2.50344,1.23513 -3.50512,1.89799 -1.00167,0.66286 -2.99869,2.37117 -4.43784,3.79627 -1.4391,1.42513 -3.4631,3.73526 -4.49776,5.13368 -1.03462,1.39837 -1.79994,2.67392 -1.70069,2.83453 0.10982,0.17775 0.31897,0.18299 0.53438,0.0138 0.19465,-0.15322 1.38272,-1.06707 2.64019,-2.03078 1.25744,-0.96369 3.18612,-2.20534 4.28593,-2.75918 1.09979,-0.55387 2.80284,-1.24053 3.78457,-1.52591 1.25349,-0.3644 2.47772,-0.47877 4.11198,-0.38416 1.71088,0.099 2.67183,0.32846 3.62903,0.86644 1.0703,0.60154 1.50158,1.14 2.42381,3.02611 1.02579,2.09799 1.12159,2.51621 1.11918,4.8855 -9.9e-4,1.94952 -0.14441,2.85532 -0.57521,3.65804 -0.31494,0.58681 -0.97071,1.5736 -1.45731,2.19284 -0.4866,0.61927 -1.7251,1.68709 -2.75222,2.373 -1.02715,0.68591 -1.9641,1.13947 -2.08215,1.00794 -0.11796,-0.13148 -0.65847,-1.6109 -1.20101,-3.28749 -0.54254,-1.67662 -1.44317,-4.0429 -2.00139,-5.25844 -0.62905,-1.36979 -1.19634,-2.21006 -1.49203,-2.21006 -0.26239,0 -0.47709,0.0829 -0.47709,0.18462 0,0.10153 0.23035,1.02748 0.51188,2.05765 0.36688,1.34243 0.51799,3.16834 0.53346,6.44556 0.0125,2.51491 -0.0822,5.5671 -0.20917,6.78264 -0.18653,1.78648 -0.1502,2.21006 0.18954,2.21006 0.23115,0 1.75303,-0.33807 3.38192,-0.75126 z"
       style="display:none;fill-opacity:1;stroke-width:0.863847;stroke-dasharray:none"
       id="path1"
       inkscape:label="Logo Hochschulsport"
       sodipodi:nodetypes="sssssssccssssscccssssccsscsscccssscsssssscsscssssssscssssssssscsscsscssscsscsssssssssccscc" /><path
       style="display:none;fill-opacity:1;fill-rule:nonzero;stroke:none;stroke-width:0.264583px;stroke-linecap:butt;stroke-linejoin:miter;stroke-opacity:1"
       d="m 152.15976,115.47917 c -8.04279,-3.47792 -17.07972,-0.47338 -24.34226,3.977 9.41221,-0.73327 30.56691,-5.52094 23.53186,12.96654 2.07799,-1.06222 3.84395,-1.1489 5.85294,0 -7.03505,-18.48748 14.11965,-13.69981 23.53187,-12.96654 -7.26254,-4.45038 -16.29948,-7.45492 -24.34227,-3.977 0.13721,-1.95898 -0.65982,-3.3948 -2.11607,-4.54729 -1.70447,0.96852 -2.01042,2.71175 -2.11607,4.54729 z"
       id="valk"
       sodipodi:nodetypes="cccccccc"
       inkscape:label="Valk Segelzeichen" /><path
       d="m 153.78302,144.25326 c 2.67525,-0.69786 7.16301,-2.39815 9.97279,-3.77837 3.72261,-1.82861 5.99884,-3.36578 8.38946,-5.66549 1.94138,-1.86754 3.93194,-4.41228 4.87571,-6.23317 1.06538,-2.05554 1.78221,-4.41129 2.1589,-7.09528 0.46562,-3.31711 0.42684,-4.7046 -0.22207,-7.95374 -0.4706,-2.35614 -1.72185,-5.85487 -3.11763,-8.7176 -1.28234,-2.63005 -2.78128,-5.376757 -3.33098,-6.10383 -0.5497,-0.727051 -1.9396,-2.342992 -3.08859,-3.590935 -1.14902,-1.247964 -3.21788,-2.809562 -4.59747,-3.470192 -1.88351,-0.901971 -3.38134,-1.199409 -6.01296,-1.193981 -2.48714,0.0069 -4.3075,0.346898 -6.27021,1.177312 -1.52108,0.643538 -4.11163,2.086049 -5.75676,3.205567 -1.64514,1.119529 -4.92501,4.004737 -7.28865,6.411619 -2.36356,2.40695 -5.68775,6.30859 -7.38706,8.67042 -1.69924,2.36175 -2.95619,4.51607 -2.79319,4.78733 0.18037,0.30019 0.52388,0.30906 0.87765,0.0233 0.31971,-0.25878 2.27097,-1.80221 4.33622,-3.42984 2.0652,-1.6276 5.23284,-3.72466 7.03915,-4.66006 1.80628,-0.93545 4.60334,-2.09517 6.21573,-2.57716 2.05871,-0.61544 4.06937,-0.8086 6.75346,-0.64882 2.80992,0.16722 4.38816,0.55476 5.96026,1.46336 1.75784,1.01597 2.46617,1.92539 3.98083,5.11089 1.68475,3.54335 1.84208,4.24969 1.83812,8.25125 -0.001,3.29261 -0.23717,4.82244 -0.94471,6.17818 -0.51725,0.99107 -1.59429,2.65769 -2.39347,3.70355 -0.79919,1.0459 -2.83328,2.84936 -4.52021,4.00781 -1.68698,1.15846 -3.2258,1.9245 -3.41969,1.70234 -0.19374,-0.22205 -1.08146,-2.72068 -1.97252,-5.55232 -0.89107,-2.8317 -2.37024,-6.82818 -3.28706,-8.88113 -1.03313,-2.31348 -1.96484,-3.73264 -2.45047,-3.73264 -0.43096,0 -0.78358,0.14002 -0.78358,0.31181 0,0.17148 0.37832,1.73535 0.84071,3.47522 0.60255,2.26728 0.85073,5.35111 0.87615,10.88609 0.0205,4.24751 -0.13502,9.40243 -0.34354,11.4554 -0.30636,3.01724 -0.24668,3.73263 0.31129,3.73263 0.37964,0 2.87916,-0.57098 5.55442,-1.26882 z"
       style="display:inline;fill-opacity:1;stroke-width:1.43874;stroke-dasharray:none"
       id="path2"
       inkscape:label="Hochschulsport D"
       sodipodi:nodetypes="cssssssssscsscsscssscsscsssssssssccscc" /></g><metadata
     id="metadata18"><rdf:RDF><cc:Work
         rdf:about=""><dc:title>Valkenfruehling Flagge</dc:title><cc:license
           rdf:resource="http://creativecommons.org/licenses/by-nc-sa/4.0/" /></cc:Work><cc:License
         rdf:about="http://creativecommons.org/licenses/by-nc-sa/4.0/"><cc:permits
           rdf:resource="http://creativecommons.org/ns#Reproduction" /><cc:permits
           rdf:resource="http://creativecommons.org/ns#Distribution" /><cc:requires
           rdf:resource="http://creativecommons.org/ns#Notice" /><cc:requires
           rdf:resource="http://creativecommons.org/ns#Attribution" /><cc:prohibits
           rdf:resource="http://creativecommons.org/ns#CommercialUse" /><cc:permits
           rdf:resource="http://creativecommons.org/ns#DerivativeWorks" /><cc:requires
           rdf:resource="http://creativecommons.org/ns#ShareAlike" /></cc:License></rdf:RDF></metadata></svg>
