<?xml version="1.0" encoding="UTF-8" standalone="no"?>
<!-- Created with Inkscape (http://www.inkscape.org/) -->

<svg
   width="300mm"
   height="200mm"
   viewBox="0 0 300 200"
   version="1.1"
   id="svg1"
   xml:space="preserve"
   inkscape:version="1.3 (0e150ed6c4, 2023-07-21)"
   sodipodi:docname="Logo_Valk_stencil.svg"
   inkscape:export-filename="Logo_Valk_links.png"
   inkscape:export-xdpi="96"
   inkscape:export-ydpi="96"
   xmlns:inkscape="http://www.inkscape.org/namespaces/inkscape"
   xmlns:sodipodi="http://sodipodi.sourceforge.net/DTD/sodipodi-0.dtd"
   xmlns:xlink="http://www.w3.org/1999/xlink"
   xmlns="http://www.w3.org/2000/svg"
   xmlns:svg="http://www.w3.org/2000/svg"
   xmlns:rdf="http://www.w3.org/1999/02/22-rdf-syntax-ns#"
   xmlns:cc="http://creativecommons.org/ns#"
   xmlns:dc="http://purl.org/dc/elements/1.1/"><title
     id="title18">Valkenfruehling Flagge</title><sodipodi:namedview
     id="namedview1"
     pagecolor="#ffffff"
     bordercolor="#666666"
     borderopacity="1.0"
     inkscape:showpageshadow="2"
     inkscape:pageopacity="0.0"
     inkscape:pagecheckerboard="0"
     inkscape:deskcolor="#d1d1d1"
     inkscape:document-units="mm"
     showguides="true"
     inkscape:zoom="0.66087829"
     inkscape:cx="603.74203"
     inkscape:cy="422.92205"
     inkscape:window-width="1499"
     inkscape:window-height="991"
     inkscape:window-x="26"
     inkscape:window-y="23"
     inkscape:window-maximized="0"
     inkscape:current-layer="layer3"
     inkscape:export-bgcolor="#006ab300"><sodipodi:guide
       position="20,180"
       orientation="-1,0"
       id="guide4"
       inkscape:locked="false"
       inkscape:label=""
       inkscape:color="rgb(0,134,229)" /><sodipodi:guide
       position="20,180"
       orientation="-1,0"
       id="guide5"
       inkscape:label=""
       inkscape:locked="false"
       inkscape:color="rgb(0,134,229)" /><sodipodi:guide
       position="280,20"
       orientation="-1,0"
       id="guide6"
       inkscape:locked="false"
       inkscape:label=""
       inkscape:color="rgb(0,134,229)" /><sodipodi:guide
       position="280,180"
       orientation="0,1"
       id="guide7"
       inkscape:locked="false"
       inkscape:label=""
       inkscape:color="rgb(0,134,229)" /><sodipodi:guide
       position="20,20"
       orientation="0,1"
       id="guide8"
       inkscape:locked="false"
       inkscape:label=""
       inkscape:color="rgb(0,134,229)" /><sodipodi:guide
       position="150,190"
       orientation="-1,0"
       id="guide19"
       inkscape:locked="false"
       inkscape:label=""
       inkscape:color="rgb(0,134,229)" /><sodipodi:guide
       position="749999.99,99.999999"
       orientation="-1,0"
       id="guide20"
       inkscape:locked="false"
       inkscape:label=""
       inkscape:color="rgb(0,134,229)" /><sodipodi:guide
       position="222.5,99.999999"
       orientation="-1,0"
       id="guide21"
       inkscape:locked="false"
       inkscape:label=""
       inkscape:color="rgb(0,134,229)" /><sodipodi:guide
       position="74.999999,99.999999"
       orientation="-1,0"
       id="guide22"
       inkscape:locked="false"
       inkscape:label=""
       inkscape:color="rgb(0,134,229)" /></sodipodi:namedview><defs
     id="defs1"><linearGradient
       id="swatch29"
       inkscape:swatch="solid"><stop
         style="stop-color:#006ab3;stop-opacity:1;"
         offset="0"
         id="stop30" /></linearGradient><linearGradient
       id="swatch28"
       inkscape:swatch="solid"><stop
         style="stop-color:#006ab3;stop-opacity:1;"
         offset="0"
         id="stop29" /></linearGradient><linearGradient
       id="swatch27"
       inkscape:swatch="solid"><stop
         style="stop-color:#006ab3;stop-opacity:1;"
         offset="0"
         id="stop28" /></linearGradient><inkscape:path-effect
       effect="spiro"
       id="path-effect12"
       is_visible="false"
       lpeversion="1" /><inkscape:path-effect
       effect="spiro"
       id="path-effect11"
       is_visible="true"
       lpeversion="1" /><linearGradient
       inkscape:collect="always"
       xlink:href="#swatch29"
       id="linearGradient30"
       x1="-0.00011661649"
       y1="100"
       x2="300.00009"
       y2="100"
       gradientUnits="userSpaceOnUse" /></defs><g
     inkscape:groupmode="layer"
     id="layer4"
     inkscape:label="Background"
     sodipodi:insensitive="true"><rect
       style="mix-blend-mode:normal;fill:url(#linearGradient30);fill-opacity:1;stroke:#ffffff;stroke-width:0;stroke-linecap:round;stroke-linejoin:round;stroke-dasharray:none;stroke-dashoffset:0;stroke-opacity:1"
       id="rect18"
       width="299.08621"
       height="199.08623"
       x="0.45688337"
       y="0.45688337"
       inkscape:label="Background" /></g><g
     inkscape:label="boot"
     inkscape:groupmode="layer"
     id="layer1"
     style="display:inline"><g
       inkscape:groupmode="layer"
       id="layer2"
       inkscape:label="Boot"
       style="display:inline;fill:#006ab3;fill-opacity:1"
       transform="matrix(-1,0,0,1,297.79188,0)"><path
         style="fill:#ffffff;fill-opacity:1;stroke:none;stroke-width:0.291235px;stroke-linecap:round;stroke-linejoin:miter;stroke-opacity:1"
         d="m 150.37246,20.34237 c 8.94523,31.19364 18.86627,70.400683 18.86627,70.400683 l 3.76071,62.063167 c 0,0 -25.77378,-0.31503 -66.68408,0.77235 3.14158,-13.73048 21.06376,-97.192437 44.0571,-133.2362 z"
         id="path9"
         sodipodi:nodetypes="ccccc"
         inkscape:label="Gross" /><path
         style="display:inline;fill:#ffffff;fill-opacity:1;stroke:#006ab3;stroke-width:2;stroke-linecap:round;stroke-linejoin:miter;stroke-opacity:1;stroke-dasharray:none"
         d="m 171.63726,46.857234 c 5.00418,13.445829 41.61744,112.878656 41.61744,112.878656 0,0 -21.40679,-3.92244 -46.40199,-0.49818 6.22756,-16.84954 10.98396,-70.016577 4.78455,-112.380476 z"
         id="path8"
         sodipodi:nodetypes="cccc"
         inkscape:label="Fok"
         transform="translate(4.5833334e-6)" /><path
         style="fill:#ffffff;fill-opacity:1;stroke:none;stroke-width:0.291235px;stroke-linecap:round;stroke-linejoin:miter;stroke-opacity:1"
         d="m 80.354168,164.11337 c 45.691002,-3.74956 135.172112,-2.76643 141.387422,0.33177 -1.93509,3.58562 -2.6293,11.78161 -4.54832,12.35855 -29.59227,-2.00838 -45.47687,2.18512 -56.13531,2.93408 -10.65842,0.74894 -76.479329,-4.32182 -82.859888,-2.93969 -1.185095,-2.40732 -1.61945,-6.0327 -2.12976,-7.15276 -0.510311,-1.12005 1.961025,-5.34118 4.285856,-5.53195 z"
         id="path10"
         sodipodi:nodetypes="scczczs"
         inkscape:label="Rumpf" /><path
         style="fill:none;fill-opacity:1;stroke:#006ab3;stroke-width:2;stroke-linecap:round;stroke-linejoin:miter;stroke-dasharray:none;stroke-dashoffset:0;stroke-opacity:1"
         d="m 67.520289,162.81433 c 47.693251,8.1061 112.636591,-0.43928 132.403731,-4.502"
         id="path11"
         sodipodi:nodetypes="cc"
         inkscape:label="Linie"
         inkscape:original-d="m 67.520289,162.81433 c 47.693251,8.1061 112.636591,-0.43928 132.403731,-4.502"
         inkscape:path-effect="#path-effect12"
         transform="matrix(1.1007352,0,0,1.1007352,1.703258,-9.7759293)" /></g></g><g
     inkscape:groupmode="layer"
     id="layer3"
     inkscape:label="Logo"
     style="display:inline"><path
       d="m 170.03259,145.45483 c -1.03999,-1.14208 -2.81609,-3.47189 -3.94687,-5.17731 -1.13078,-1.70543 -2.19887,-3.34983 -2.37352,-3.65421 -0.28399,-0.49495 -0.40131,-0.42738 -1.11037,0.63967 -0.43604,0.65622 -1.53845,2.07278 -2.4498,3.14793 -0.91136,1.07513 -2.55746,2.63284 -3.65802,3.46155 -1.10055,0.82875 -2.73299,1.78336 -3.62766,2.1214 -0.89464,0.33804 -2.27901,0.6131 -3.07636,0.61124 -0.79735,-0.001 -1.99483,-0.0934 -2.66109,-0.20344 -0.85896,-0.14183 -1.5922,-0.58088 -2.52047,-1.50916 -0.80923,-0.80925 -1.8318,-2.40548 -2.678,-4.18039 -0.7529,-1.57921 -1.92497,-4.60174 -2.60463,-6.71675 -0.67966,-2.11501 -1.59637,-5.36826 -2.03713,-7.22946 -0.44075,-1.86122 -0.99667,-4.14542 -1.23535,-5.07601 -0.23867,-0.93061 -0.52355,-2.39718 -0.63305,-3.25902 -0.10964,-0.86186 -0.0393,-2.45389 0.15625,-3.53784 0.19544,-1.08395 0.7847,-2.77849 1.30948,-3.76562 0.54359,-1.0226 1.68197,-2.44354 2.64583,-3.30263 0.93045,-0.82929 2.81571,-2.06462 4.18949,-2.74514 1.37375,-0.68052 3.85799,-1.58237 5.52053,-2.00411 1.66252,-0.42173 3.36724,-0.76678 3.7883,-0.76678 0.66196,0 0.73211,-0.0936 0.51853,-0.69219 -0.1359,-0.38071 -0.25579,-1.45361 -0.2666,-2.3842 -0.015,-1.301276 0.1462,-1.924498 0.69845,-2.698794 0.39495,-0.55373 1.25467,-1.280518 1.91048,-1.615097 0.65581,-0.334564 1.64783,-0.605275 2.20447,-0.601556 0.55664,0.0028 1.57905,0.264249 2.27199,0.578958 0.77946,0.353989 1.54041,1.025957 1.99551,1.76216 0.55884,0.904026 0.72999,1.604582 0.71226,2.915506 l -0.0235,1.725573 1.41183,-0.15379 c 1.02967,-0.11208 1.72038,-0.42989 2.55161,-1.173857 0.62689,-0.561053 1.66516,-1.287469 2.30729,-1.614251 0.64214,-0.32678 1.68555,-0.736619 2.31873,-0.910766 0.63316,-0.174146 1.21987,-0.205517 1.30379,-0.06976 0.0838,0.13576 -0.46873,1.173428 -1.22813,2.305873 -0.75938,1.132461 -1.3807,2.186611 -1.3807,2.342581 0,0.15597 0.12782,0.28357 0.28402,0.28357 0.15623,0 0.71603,0.36349 1.24404,0.8078 0.52801,0.44427 1.24015,1.3569 1.58254,2.02806 0.3424,0.67113 0.74655,1.98222 0.89811,2.91348 0.16655,1.02332 0.1601,2.60408 -0.0162,3.99562 -0.16056,1.26632 -0.78227,3.76782 -1.3816,5.55888 -0.59934,1.79107 -2.00922,5.04303 -3.13308,7.2266 l -2.04339,3.97012 0.55256,2.97759 c 0.3039,1.63764 1.0941,4.87855 1.75597,7.20199 0.66188,2.32344 1.53709,5.11088 1.9449,6.19432 0.40781,1.08345 0.65636,2.05502 0.55232,2.15905 -0.10402,0.10402 -0.2935,0.18915 -0.42103,0.18915 -0.12754,0 -1.08278,-0.93444 -2.12275,-2.07655 z m -18.93621,-7.29546 c 1.64384,-0.41699 4.40141,-1.43296 6.12792,-2.25769 2.28741,-1.09265 3.68606,-2.01116 5.15501,-3.38529 1.19291,-1.11592 2.41604,-2.63648 2.99595,-3.72452 0.65464,-1.22824 1.0951,-2.63588 1.32656,-4.23964 0.28611,-1.98207 0.26228,-2.81114 -0.13645,-4.7526 -0.28917,-1.40787 -1.05802,-3.49847 -1.91568,-5.20903 -0.78794,-1.57153 -1.70899,-3.21277 -2.04676,-3.64723 -0.33777,-0.43443 -1.1918,-1.40001 -1.89782,-2.14569 -0.70604,-0.74569 -1.97727,-1.6788 -2.82497,-2.07354 -1.15736,-0.53895 -2.07772,-0.71668 -3.69475,-0.71344 -1.52827,0.004 -2.64681,0.20728 -3.85282,0.70348 -0.93464,0.38453 -2.52644,1.24648 -3.53732,1.91542 -1.01087,0.66895 -3.02624,2.39296 -4.47861,3.83115 -1.45232,1.43822 -3.49491,3.76957 -4.53907,5.18083 -1.04413,1.41122 -1.81648,2.69849 -1.71631,2.86057 0.11083,0.17938 0.3219,0.18467 0.53929,0.0139 0.19643,-0.15463 1.39542,-1.07688 2.66444,-2.04944 1.26899,-0.97254 3.21538,-2.2256 4.3253,-2.78452 1.10989,-0.55896 2.82858,-1.25193 3.81933,-1.53993 1.26501,-0.36775 2.50048,-0.48317 4.14975,-0.38769 1.7266,0.0999 2.69638,0.33148 3.66237,0.8744 1.08013,0.60707 1.51537,1.15047 2.44607,3.05391 1.03522,2.11726 1.1319,2.53932 1.12946,4.93038 -0.001,1.96742 -0.14573,2.88154 -0.58049,3.69164 -0.31783,0.5922 -0.97963,1.58805 -1.4707,2.21298 -0.49107,0.62496 -1.74094,1.70259 -2.7775,2.3948 -1.03658,0.69221 -1.98214,1.14993 -2.10127,1.0172 -0.11905,-0.13269 -0.66452,-1.6257 -1.21205,-3.31769 -0.54752,-1.69202 -1.45642,-4.08004 -2.01977,-5.30674 -0.63483,-1.38238 -1.20733,-2.23037 -1.50574,-2.23037 -0.2648,0 -0.48147,0.0837 -0.48147,0.18632 0,0.10246 0.23247,1.03692 0.51658,2.07655 0.37025,1.35476 0.52275,3.19744 0.53836,6.50477 0.0126,2.53801 -0.083,5.61824 -0.21109,6.84494 -0.18824,1.80289 -0.15158,2.23036 0.19128,2.23036 0.23328,0 1.76914,-0.34117 3.41299,-0.75816 z"
       style="display:inline;fill:#006ab3;fill-opacity:1;stroke-width:0.871782;stroke-dasharray:none"
       id="path1"
       inkscape:label="Logo Hochschulsport" /><path
       style="display:none;fill:#006ab3;fill-opacity:1;fill-rule:nonzero;stroke:none;stroke-width:0.264583px;stroke-linecap:butt;stroke-linejoin:miter;stroke-opacity:1"
       d="m 152.15976,115.47917 c -8.04279,-3.47792 -17.07972,-0.47338 -24.34226,3.977 9.41221,-0.73327 30.56691,-5.52094 23.53186,12.96654 2.07799,-1.06222 3.84395,-1.1489 5.85294,0 -7.03505,-18.48748 14.11965,-13.69981 23.53187,-12.96654 -7.26254,-4.45038 -16.29948,-7.45492 -24.34227,-3.977 0.13721,-1.95898 -0.65982,-3.3948 -2.11607,-4.54729 -1.70447,0.96852 -2.01042,2.71175 -2.11607,4.54729 z"
       id="valk"
       sodipodi:nodetypes="cccccccc"
       inkscape:label="Valk Segelzeichen" /><path
       style="display:none;fill:#006ab3;fill-opacity:1;stroke:none;stroke-width:1.85869;stroke-dasharray:none;stroke-opacity:1"
       d="m 173.33492,153.84152 c -1.40538,-1.41579 -3.8055,-4.30396 -5.33356,-6.4181 -1.52807,-2.11416 -2.97142,-4.15265 -3.20743,-4.52998 -0.38377,-0.61356 -0.54231,-0.5298 -1.50049,0.79297 -0.58923,0.81349 -2.07897,2.56955 -3.31051,3.90237 -1.23155,1.33279 -3.456,3.26382 -4.94323,4.29114 -1.48722,1.02737 -3.69319,2.21076 -4.9022,2.62982 -1.20896,0.41905 -3.07972,0.76003 -4.15721,0.75773 -1.07749,-9.3e-4 -2.69569,-0.11579 -3.59603,-0.25221 -1.16075,-0.17581 -2.1516,-0.72009 -3.40601,-1.87083 -1.09354,-1.0032 -2.47539,-2.98198 -3.61889,-5.18227 -1.01743,-1.95768 -2.60129,-5.70459 -3.51974,-8.32648 -0.91846,-2.6219 -2.15724,-6.65482 -2.75285,-8.96208 -0.59561,-2.30727 -1.34685,-5.1389 -1.66939,-6.29251 -0.32252,-1.15365 -0.70749,-2.9717 -0.85546,-4.04009 -0.14816,-1.06841 -0.0531,-3.04199 0.21115,-4.38572 0.2641,-1.34372 1.06039,-3.44437 1.76955,-4.66808 0.73458,-1.26768 2.27291,-3.02916 3.57542,-4.09414 1.25735,-1.02803 3.80498,-2.55943 5.66142,-3.40303 1.8564,-0.84362 5.21345,-1.96161 7.46011,-2.48442 2.24663,-0.52281 4.55028,-0.95055 5.11928,-0.95055 0.89454,0 0.98933,-0.11603 0.70071,-0.858079 -0.18365,-0.471949 -0.34566,-1.80198 -0.36027,-2.955595 -0.0203,-1.61314 0.19757,-2.385723 0.94384,-3.345586 0.53372,-0.686437 1.69549,-1.587407 2.58172,-2.002171 0.88622,-0.414745 2.22677,-0.750335 2.97898,-0.745725 0.75221,0.0034 2.13383,0.327579 3.07023,0.717712 1.05332,0.438825 2.08162,1.271837 2.69662,2.184478 0.75517,1.120685 0.98646,1.989135 0.9625,3.614235 l -0.0318,2.139121 1.90786,-0.190645 c 1.39143,-0.13894 2.32481,-0.532917 3.44809,-1.455183 0.84713,-0.695515 2.25019,-1.596024 3.11793,-2.001121 0.86775,-0.405097 2.27775,-0.913158 3.13339,-1.129041 0.85562,-0.215881 1.64846,-0.25477 1.76186,-0.08648 0.11325,0.168296 -0.63341,1.454651 -1.65961,2.858498 -1.02619,1.403866 -1.8658,2.71065 -1.8658,2.904002 0,0.19335 0.17273,0.35154 0.38381,0.35154 0.21112,0 0.9676,0.4506 1.68112,1.00139 0.71352,0.55074 1.67586,1.6821 2.13855,2.51411 0.46269,0.83197 1.00884,2.45727 1.21365,3.61171 0.22506,1.26858 0.21635,3.22818 -0.0219,4.95322 -0.21697,1.5698 -1.05711,4.67081 -1.86701,6.89112 -0.80991,2.22031 -2.71514,6.25164 -4.23385,8.95852 l -2.76132,4.9216 0.74669,3.6912 c 0.41068,2.03012 1.47851,6.04774 2.37292,8.92801 0.89442,2.88028 2.07713,6.33575 2.62822,7.67885 0.55108,1.34311 0.88696,2.54753 0.74637,2.67649 -0.14057,0.12895 -0.39662,0.23448 -0.56896,0.23448 -0.17234,0 -1.46319,-1.15838 -2.86855,-2.57421 z"
       id="path2" /><path
       style="display:none;fill:#ffffff;fill-opacity:1;stroke:#ffffff;stroke-width:1.85869;stroke-dasharray:none;stroke-opacity:1"
       d="m 147.74567,144.79763 c 2.22138,-0.51692 5.9478,-1.77638 8.28091,-2.79876 3.09106,-1.35452 4.98111,-2.49316 6.96616,-4.19662 1.61203,-1.38335 3.26489,-3.26833 4.04855,-4.61713 0.88463,-1.5226 1.47985,-3.26759 1.79263,-5.25571 0.38663,-2.4571 0.35443,-3.48486 -0.18439,-5.89161 -0.39077,-1.74527 -1.42974,-4.33691 -2.58874,-6.45742 -1.06476,-1.94816 -2.30942,-3.98275 -2.76587,-4.52133 -0.45643,-0.53855 -1.61052,-1.73553 -2.5646,-2.65992 -0.95409,-0.92441 -2.67196,-2.08114 -3.81748,-2.57049 -1.56399,-0.66811 -2.80771,-0.88843 -4.99287,-0.88442 -2.06521,0.005 -3.57673,0.25696 -5.20647,0.87208 -1.26302,0.47668 -3.41408,1.54521 -4.78011,2.37447 -1.36604,0.82927 -4.08948,2.96646 -6.05213,4.74932 -1.96258,1.7829 -4.72281,4.67299 -6.13382,6.42247 -1.41098,1.74943 -2.5153,1.77704 -2.27039,2.91284 -0.055,0.88019 -0.15105,1.88558 0.11801,1.5505 0.26544,-0.19169 2.44751,-2.23498 4.16238,-3.44062 1.71484,-1.20562 4.34507,-2.75899 5.84495,-3.45185 1.49984,-0.69292 3.82238,-1.55197 5.16122,-1.909 1.70945,-0.45588 3.37899,-0.59896 5.60772,-0.4806 2.33322,0.12385 3.64372,0.41092 4.9491,1.08396 1.45962,0.75256 2.04778,1.42619 3.30547,3.78581 1.39893,2.62468 1.52958,3.14789 1.52629,6.11199 -9.3e-4,2.43894 -0.19694,3.57213 -0.78444,4.57638 -0.4295,0.73413 -1.32381,1.96864 -1.98741,2.74335 -0.66361,0.77474 -2.35261,2.11062 -3.75335,2.96873 -1.40077,0.8581 -2.67855,1.42552 -2.83953,1.26098 -0.16088,-0.16449 -0.898,-2.01531 -1.63789,-4.1128 -0.73989,-2.09753 -1.96812,-5.05787 -2.7294,-6.57855 -0.85786,-1.71369 -1.63151,-2.76491 -2.03477,-2.76491 -0.35783,0 -0.65062,0.10376 -0.65062,0.23098 0,0.12702 0.31414,1.28543 0.69807,2.57421 0.50034,1.67945 0.70642,3.96374 0.7275,8.0637 0.017,3.14627 -0.11215,6.96471 -0.28525,8.4854 -0.25437,2.23497 -0.20484,2.76489 0.25849,2.76489 0.31524,0 2.39071,-0.42294 4.61211,-0.93987 z"
       id="path3"
       sodipodi:nodetypes="cssscssssscsscsccscscsscssssscssscsscc" /></g><metadata
     id="metadata18"><rdf:RDF><cc:Work
         rdf:about=""><dc:title>Valkenfruehling Flagge</dc:title><cc:license
           rdf:resource="http://creativecommons.org/licenses/by-nc-sa/4.0/" /></cc:Work><cc:License
         rdf:about="http://creativecommons.org/licenses/by-nc-sa/4.0/"><cc:permits
           rdf:resource="http://creativecommons.org/ns#Reproduction" /><cc:permits
           rdf:resource="http://creativecommons.org/ns#Distribution" /><cc:requires
           rdf:resource="http://creativecommons.org/ns#Notice" /><cc:requires
           rdf:resource="http://creativecommons.org/ns#Attribution" /><cc:prohibits
           rdf:resource="http://creativecommons.org/ns#CommercialUse" /><cc:permits
           rdf:resource="http://creativecommons.org/ns#DerivativeWorks" /><cc:requires
           rdf:resource="http://creativecommons.org/ns#ShareAlike" /></cc:License></rdf:RDF></metadata></svg>
