<?xml version="1.0" encoding="UTF-8" standalone="no"?>
<!-- Created with Inkscape (http://www.inkscape.org/) -->

<svg
   width="144.41434mm"
   height="159.82182mm"
   viewBox="0 0 144.41434 159.82182"
   version="1.1"
   id="svg1"
   xml:space="preserve"
   inkscape:version="1.3 (0e150ed6c4, 2023-07-21)"
   sodipodi:docname="Logo_Valk_einzeln.svg"
   inkscape:export-filename="Logo_Valk_einzeln.png"
   inkscape:export-xdpi="96"
   inkscape:export-ydpi="96"
   xmlns:inkscape="http://www.inkscape.org/namespaces/inkscape"
   xmlns:sodipodi="http://sodipodi.sourceforge.net/DTD/sodipodi-0.dtd"
   xmlns:xlink="http://www.w3.org/1999/xlink"
   xmlns="http://www.w3.org/2000/svg"
   xmlns:svg="http://www.w3.org/2000/svg"
   xmlns:rdf="http://www.w3.org/1999/02/22-rdf-syntax-ns#"
   xmlns:cc="http://creativecommons.org/ns#"
   xmlns:dc="http://purl.org/dc/elements/1.1/"><title
     id="title18">Valkenfruehling Flagge</title><sodipodi:namedview
     id="namedview1"
     pagecolor="#006ab3"
     bordercolor="#666666"
     borderopacity="1.0"
     inkscape:showpageshadow="2"
     inkscape:pageopacity="0.0"
     inkscape:pagecheckerboard="true"
     inkscape:deskcolor="#d1d1d1"
     inkscape:document-units="mm"
     showguides="true"
     inkscape:zoom="0.9050967"
     inkscape:cx="274.5563"
     inkscape:cy="336.98057"
     inkscape:window-width="1920"
     inkscape:window-height="1080"
     inkscape:window-x="0"
     inkscape:window-y="0"
     inkscape:window-maximized="1"
     inkscape:current-layer="layer2"
     inkscape:export-bgcolor="#006ab300"><sodipodi:guide
       position="-56.713339,199.99981"
       orientation="-1,0"
       id="guide4"
       inkscape:locked="false"
       inkscape:label=""
       inkscape:color="rgb(0,134,229)" /><sodipodi:guide
       position="-56.713339,199.99981"
       orientation="-1,0"
       id="guide5"
       inkscape:label=""
       inkscape:locked="false"
       inkscape:color="rgb(0,134,229)" /><sodipodi:guide
       position="203.28666,39.999813"
       orientation="-1,0"
       id="guide6"
       inkscape:locked="false"
       inkscape:label=""
       inkscape:color="rgb(0,134,229)" /><sodipodi:guide
       position="203.28666,199.99981"
       orientation="0,1"
       id="guide7"
       inkscape:locked="false"
       inkscape:label=""
       inkscape:color="rgb(0,134,229)" /><sodipodi:guide
       position="-56.713339,39.999813"
       orientation="0,1"
       id="guide8"
       inkscape:locked="false"
       inkscape:label=""
       inkscape:color="rgb(0,134,229)" /><sodipodi:guide
       position="73.286661,209.99981"
       orientation="-1,0"
       id="guide19"
       inkscape:locked="false"
       inkscape:label=""
       inkscape:color="rgb(0,134,229)" /><sodipodi:guide
       position="749923.28,119.99981"
       orientation="-1,0"
       id="guide20"
       inkscape:locked="false"
       inkscape:label=""
       inkscape:color="rgb(0,134,229)" /><sodipodi:guide
       position="145.78666,119.99981"
       orientation="-1,0"
       id="guide21"
       inkscape:locked="false"
       inkscape:label=""
       inkscape:color="rgb(0,134,229)" /><sodipodi:guide
       position="-1.7133404,119.99981"
       orientation="-1,0"
       id="guide22"
       inkscape:locked="false"
       inkscape:label=""
       inkscape:color="rgb(0,134,229)" /></sodipodi:namedview><defs
     id="defs1"><linearGradient
       id="swatch31"
       inkscape:swatch="solid"><stop
         style="stop-color:#000000;stop-opacity:1;"
         offset="0"
         id="stop31" /></linearGradient><linearGradient
       id="swatch28"
       inkscape:swatch="solid"><stop
         style="stop-color:#000000;stop-opacity:1;"
         offset="0"
         id="stop29" /></linearGradient><linearGradient
       id="swatch3"
       inkscape:swatch="solid"
       inkscape:label="Background"><stop
         style="stop-color:#000000;stop-opacity:1;"
         offset="0"
         id="stop3" /></linearGradient><linearGradient
       id="swatch27"
       inkscape:swatch="solid"
       inkscape:label="Foreground"><stop
         style="stop-color:#ffffff;stop-opacity:1;"
         offset="0"
         id="stop28" /></linearGradient><inkscape:path-effect
       effect="spiro"
       id="path-effect12"
       is_visible="false"
       lpeversion="1" /><linearGradient
       inkscape:collect="always"
       xlink:href="#swatch27"
       id="linearGradient29"
       x1="76.664207"
       y1="99.910721"
       x2="221.07854"
       y2="99.910721"
       gradientUnits="userSpaceOnUse" /></defs><g
     inkscape:label="boot"
     inkscape:groupmode="layer"
     id="layer1"
     style="display:inline"
     transform="translate(-76.71334,-19.999813)"><g
       inkscape:groupmode="layer"
       id="layer2"
       inkscape:label="Boot"
       style="display:inline;fill:url(#linearGradient29);fill-opacity:1"
       transform="matrix(-1,0,0,1,297.79188,0)"><path
         id="path9"
         style="fill:url(#linearGradient29);fill-opacity:1"
         inkscape:label="Gross"
         d="m 150.35883,19.999813 c 8.31397,31.055812 18.69446,70.102698 18.69446,70.102698 l 1.07745,34.721389 c -1.20459,10.31805 -2.52654,19.69634 -3.56774,26.74514 -9.30274,-0.035 -29.86727,-3.5e-4 -59.86042,0.79685 3.11297,-13.60546 19.55906,-105.232954 43.65625,-132.366077 z M 138.98174,90.45081 c -2.63162,-0.0054 -4.12957,0.291756 -6.01307,1.193725 -1.37959,0.66063 -3.44863,2.222111 -4.59765,3.470073 -1.14899,1.24794 -2.539,2.863946 -3.0887,3.590995 -0.5497,0.727071 -2.04872,3.473987 -3.33106,6.104017 -1.39578,2.86273 -2.64653,6.36168 -3.11713,8.71782 -0.6489,3.24912 -0.68782,4.63641 -0.2222,7.95352 0.37669,2.68397 1.09314,5.03963 2.15852,7.09517 0.94377,1.82089 2.93481,4.36567 4.87619,6.23321 2.39062,2.29971 4.66655,3.8372 8.38915,5.66581 2.80978,1.38022 7.29779,3.0802 9.97304,3.77806 v 5.2e-4 c 2.67525,0.69784 5.17454,1.26917 5.55418,1.26917 0.55797,0 0.61745,-0.71535 0.31109,-3.73259 -0.20852,-2.05297 -0.36363,-7.20812 -0.34313,-11.45563 0.0254,-5.53496 0.27337,-8.61888 0.87591,-10.88616 0.46239,-1.73987 0.84078,-3.30376 0.84078,-3.47524 0,-0.17179 -0.35245,-0.31161 -0.78341,-0.31161 -0.48563,0 -1.41737,1.41913 -2.4505,3.73259 -0.91682,2.05295 -2.39607,6.04943 -3.28714,8.88111 -0.89105,2.83164 -1.77875,5.33007 -1.97249,5.55212 -0.19388,0.22216 -1.73297,-0.54376 -3.41994,-1.70222 -1.68693,-1.15845 -3.72095,-2.96161 -4.52014,-4.00751 -0.79918,-1.04586 -1.8759,-2.71258 -2.39314,-3.70365 -0.70754,-1.35574 -0.94416,-2.88584 -0.94516,-6.17843 -0.004,-4.00156 0.15339,-4.70783 1.83813,-8.25118 1.51466,-3.1855 2.22332,-4.09483 3.98115,-5.1108 1.5721,-0.9086 3.15045,-1.29625 5.96036,-1.46347 2.68408,-0.15978 4.69437,0.0336 6.75308,0.64905 1.61239,0.48199 4.40937,1.64166 6.21564,2.57711 1.80631,0.93538 4.97417,3.03258 7.03936,4.66018 2.06525,1.62761 4.01646,3.17098 4.33617,3.42976 0.35377,0.28576 0.69762,0.27699 0.87799,-0.0233 0.163,-0.27126 -1.09439,-2.42556 -2.79363,-4.78731 -1.69931,-2.36183 -5.02307,-6.26384 -7.38663,-8.67079 -2.36364,-2.406872 -5.64382,-5.291965 -7.28896,-6.411492 -1.64513,-1.119516 -4.23568,-2.561953 -5.75676,-3.205489 -1.9627,-0.830412 -3.78277,-1.170289 -6.2699,-1.177189 z"
         sodipodi:nodetypes="ccccccccsssccsssccsccssssscsssccsccccccscsccc" /><path
         id="path10"
         mask="none"
         style="fill:url(#linearGradient29);fill-opacity:1"
         inkscape:label="Rumpf"
         d="m 154.77509,160.40365 c 32.03929,-0.0588 60.59566,0.92776 65.76085,2.54299 -0.19398,-0.0118 -0.37044,-0.0281 -0.67128,-0.015 -50.19288,8.29797 -95.33658,12.62091 -143.175861,4.47626 0.274724,-1.59587 2.337286,-4.44321 4.289249,-4.60339 19.807842,-1.6255 47.921242,-2.35342 73.797042,-2.40088 z m 66.1355,3.11402 c -1.7843,3.70827 -2.49715,11.30815 -4.33875,11.86181 -8.83124,-5.13391 -37.30601,-0.11865 -55.62451,2.90731 -19.98559,3.30134 -76.812584,0.78589 -82.105586,-2.913 -1.33376,-2.56583 -1.470972,-5.84789 -1.929396,-7.09398 47.276652,8.26354 93.356542,3.82471 143.928482,-4.71098 0.0302,-0.017 0.042,-0.034 0.0698,-0.0512 z"
         sodipodi:nodetypes="sccccsccscccc" /><path
         style="display:inline;fill:url(#linearGradient29);fill-opacity:1"
         d="m 171.43026,46.615891 c 4.95864,13.323443 41.23864,111.851219 41.23864,111.851219 0,0 -21.21195,-3.88674 -45.97964,-0.49365 2.78401,-20.12072 11.65763,-69.379272 4.741,-111.357569 z"
         id="path25"
         sodipodi:nodetypes="cccc"
         inkscape:label="Fok" /></g></g><metadata
     id="metadata18"><rdf:RDF><cc:Work
         rdf:about=""><dc:title>Valkenfruehling Flagge</dc:title><cc:license
           rdf:resource="http://creativecommons.org/licenses/by-nc-sa/4.0/" /></cc:Work><cc:License
         rdf:about="http://creativecommons.org/licenses/by-nc-sa/4.0/"><cc:permits
           rdf:resource="http://creativecommons.org/ns#Reproduction" /><cc:permits
           rdf:resource="http://creativecommons.org/ns#Distribution" /><cc:requires
           rdf:resource="http://creativecommons.org/ns#Notice" /><cc:requires
           rdf:resource="http://creativecommons.org/ns#Attribution" /><cc:prohibits
           rdf:resource="http://creativecommons.org/ns#CommercialUse" /><cc:permits
           rdf:resource="http://creativecommons.org/ns#DerivativeWorks" /><cc:requires
           rdf:resource="http://creativecommons.org/ns#ShareAlike" /></cc:License></rdf:RDF></metadata></svg>
